<svg width="1232" height="302" viewBox="0 0 1232 302" fill="none" xmlns="http://www.w3.org/2000/svg">
<g opacity="0.6">
<path d="M1 2.37956C1.55228 2.37956 2 1.84688 2 1.18978C2 0.532683 1.55228 0 1 0C0.447715 0 0 0.532683 0 1.18978C0 1.84688 0.447715 2.37956 1 2.37956Z" fill="#2D8BBB" fill-opacity="0.5"/>
<path d="M1 26.1752C1.55228 26.1752 2 25.6425 2 24.9854C2 24.3283 1.55228 23.7957 1 23.7957C0.447715 23.7957 0 24.3283 0 24.9854C0 25.6425 0.447715 26.1752 1 26.1752Z" fill="#DFF4FD" fill-opacity="0.5"/>
<path d="M1 48.7811C1.55228 48.7811 2 48.2484 2 47.5913C2 46.9342 1.55228 46.4015 1 46.4015C0.447715 46.4015 0 46.9342 0 47.5913C0 48.2484 0.447715 48.7811 1 48.7811Z" fill="#2D8BBB" fill-opacity="0.5"/>
<path d="M1 71.3869C1.55228 71.3869 2 70.8542 2 70.1971C2 69.54 1.55228 69.0073 1 69.0073C0.447715 69.0073 0 69.54 0 70.1971C0 70.8542 0.447715 71.3869 1 71.3869Z" fill="#DFF4FD" fill-opacity="0.5"/>
<path d="M1 95.1825C1.55228 95.1825 2 94.6499 2 93.9928C2 93.3357 1.55228 92.803 1 92.803C0.447715 92.803 0 93.3357 0 93.9928C0 94.6499 0.447715 95.1825 1 95.1825Z" fill="#2D8BBB" fill-opacity="0.5"/>
<path d="M35 95.1825C35.5523 95.1825 36 94.6499 36 93.9928C36 93.3357 35.5523 92.803 35 92.803C34.4477 92.803 34 93.3357 34 93.9928C34 94.6499 34.4477 95.1825 35 95.1825Z" fill="#DFF4FD" fill-opacity="0.5"/>
<path d="M1 118.978C1.55228 118.978 2 118.446 2 117.788C2 117.131 1.55228 116.599 1 116.599C0.447715 116.599 0 117.131 0 117.788C0 118.446 0.447715 118.978 1 118.978Z" fill="#DFF4FD" fill-opacity="0.5"/>
<path d="M35 118.978C35.5523 118.978 36 118.446 36 117.788C36 117.131 35.5523 116.599 35 116.599C34.4477 116.599 34 117.131 34 117.788C34 118.446 34.4477 118.978 35 118.978Z" fill="#2D8BBB" fill-opacity="0.5"/>
<path d="M101 118.978C101.552 118.978 102 118.446 102 117.788C102 117.131 101.552 116.599 101 116.599C100.448 116.599 100 117.131 100 117.788C100 118.446 100.448 118.978 101 118.978Z" fill="#2D8BBB" fill-opacity="0.5"/>
<path d="M269 118.978C269.552 118.978 270 118.446 270 117.788C270 117.131 269.552 116.599 269 116.599C268.448 116.599 268 117.131 268 117.788C268 118.446 268.448 118.978 269 118.978Z" fill="#DFF4FD" fill-opacity="0.5"/>
<path d="M336 118.978C336.552 118.978 337 118.446 337 117.788C337 117.131 336.552 116.599 336 116.599C335.448 116.599 335 117.131 335 117.788C335 118.446 335.448 118.978 336 118.978Z" fill="#DFF4FD" fill-opacity="0.5"/>
<path d="M369 118.978C369.552 118.978 370 118.446 370 117.788C370 117.131 369.552 116.599 369 116.599C368.448 116.599 368 117.131 368 117.788C368 118.446 368.448 118.978 369 118.978Z" fill="#2D8BBB" fill-opacity="0.5"/>
<path d="M1 141.584C1.55228 141.584 2 141.051 2 140.394C2 139.737 1.55228 139.204 1 139.204C0.447715 139.204 0 139.737 0 140.394C0 141.051 0.447715 141.584 1 141.584Z" fill="#2D8BBB" fill-opacity="0.5"/>
<path d="M35 141.584C35.5523 141.584 36 141.051 36 140.394C36 139.737 35.5523 139.204 35 139.204C34.4477 139.204 34 139.737 34 140.394C34 141.051 34.4477 141.584 35 141.584Z" fill="#DFF4FD" fill-opacity="0.5"/>
<path d="M101 141.584C101.552 141.584 102 141.051 102 140.394C102 139.737 101.552 139.204 101 139.204C100.448 139.204 100 139.737 100 140.394C100 141.051 100.448 141.584 101 141.584Z" fill="#DFF4FD" fill-opacity="0.5"/>
<path d="M269 141.584C269.552 141.584 270 141.051 270 140.394C270 139.737 269.552 139.204 269 139.204C268.448 139.204 268 139.737 268 140.394C268 141.051 268.448 141.584 269 141.584Z" fill="#2D8BBB" fill-opacity="0.5"/>
<path d="M336 141.584C336.552 141.584 337 141.051 337 140.394C337 139.737 336.552 139.204 336 139.204C335.448 139.204 335 139.737 335 140.394C335 141.051 335.448 141.584 336 141.584Z" fill="#2D8BBB" fill-opacity="0.5"/>
<path d="M369 141.584C369.552 141.584 370 141.051 370 140.394C370 139.737 369.552 139.204 369 139.204C368.448 139.204 368 139.737 368 140.394C368 141.051 368.448 141.584 369 141.584Z" fill="#DFF4FD" fill-opacity="0.5"/>
<path d="M1 164.19C1.55228 164.19 2 163.657 2 163C2 162.343 1.55228 161.81 1 161.81C0.447715 161.81 0 162.343 0 163C0 163.657 0.447715 164.19 1 164.19Z" fill="#DFF4FD" fill-opacity="0.5"/>
<path d="M35 164.19C35.5523 164.19 36 163.657 36 163C36 162.343 35.5523 161.81 35 161.81C34.4477 161.81 34 162.343 34 163C34 163.657 34.4477 164.19 35 164.19Z" fill="#2D8BBB" fill-opacity="0.5"/>
<path d="M101 164.19C101.552 164.19 102 163.657 102 163C102 162.343 101.552 161.81 101 161.81C100.448 161.81 100 162.343 100 163C100 163.657 100.448 164.19 101 164.19Z" fill="#2D8BBB" fill-opacity="0.5"/>
<path d="M134 164.19C134.552 164.19 135 163.657 135 163C135 162.343 134.552 161.81 134 161.81C133.448 161.81 133 162.343 133 163C133 163.657 133.448 164.19 134 164.19Z" fill="#DFF4FD" fill-opacity="0.5"/>
<path d="M168 164.19C168.552 164.19 169 163.657 169 163C169 162.343 168.552 161.81 168 161.81C167.448 161.81 167 162.343 167 163C167 163.657 167.448 164.19 168 164.19Z" fill="#2D8BBB" fill-opacity="0.5"/>
<path d="M269 164.19C269.552 164.19 270 163.657 270 163C270 162.343 269.552 161.81 269 161.81C268.448 161.81 268 162.343 268 163C268 163.657 268.448 164.19 269 164.19Z" fill="#DFF4FD" fill-opacity="0.5"/>
<path d="M336 164.19C336.552 164.19 337 163.657 337 163C337 162.343 336.552 161.81 336 161.81C335.448 161.81 335 162.343 335 163C335 163.657 335.448 164.19 336 164.19Z" fill="#DFF4FD" fill-opacity="0.5"/>
<path d="M369 164.19C369.552 164.19 370 163.657 370 163C370 162.343 369.552 161.81 369 161.81C368.448 161.81 368 162.343 368 163C368 163.657 368.448 164.19 369 164.19Z" fill="#2D8BBB" fill-opacity="0.5"/>
<path d="M1 186.796C1.55228 186.796 2 186.263 2 185.606C2 184.949 1.55228 184.416 1 184.416C0.447715 184.416 0 184.949 0 185.606C0 186.263 0.447715 186.796 1 186.796Z" fill="#2D8BBB" fill-opacity="0.5"/>
<path d="M35 186.796C35.5523 186.796 36 186.263 36 185.606C36 184.949 35.5523 184.416 35 184.416C34.4477 184.416 34 184.949 34 185.606C34 186.263 34.4477 186.796 35 186.796Z" fill="#DFF4FD" fill-opacity="0.5"/>
<path d="M67 186.796C67.5523 186.796 68 186.263 68 185.606C68 184.949 67.5523 184.416 67 184.416C66.4477 184.416 66 184.949 66 185.606C66 186.263 66.4477 186.796 67 186.796Z" fill="#2D8BBB" fill-opacity="0.5"/>
<path d="M101 186.796C101.552 186.796 102 186.263 102 185.606C102 184.949 101.552 184.416 101 184.416C100.448 184.416 100 184.949 100 185.606C100 186.263 100.448 186.796 101 186.796Z" fill="#DFF4FD" fill-opacity="0.5"/>
<path d="M134 186.796C134.552 186.796 135 186.263 135 185.606C135 184.949 134.552 184.416 134 184.416C133.448 184.416 133 184.949 133 185.606C133 186.263 133.448 186.796 134 186.796Z" fill="#2D8BBB" fill-opacity="0.5"/>
<path d="M168 186.796C168.552 186.796 169 186.263 169 185.606C169 184.949 168.552 184.416 168 184.416C167.448 184.416 167 184.949 167 185.606C167 186.263 167.448 186.796 168 186.796Z" fill="#DFF4FD" fill-opacity="0.5"/>
<path d="M269 186.796C269.552 186.796 270 186.263 270 185.606C270 184.949 269.552 184.416 269 184.416C268.448 184.416 268 184.949 268 185.606C268 186.263 268.448 186.796 269 186.796Z" fill="#2D8BBB" fill-opacity="0.5"/>
<path d="M336 186.796C336.552 186.796 337 186.263 337 185.606C337 184.949 336.552 184.416 336 184.416C335.448 184.416 335 184.949 335 185.606C335 186.263 335.448 186.796 336 186.796Z" fill="#2D8BBB" fill-opacity="0.5"/>
<path d="M369 186.796C369.552 186.796 370 186.263 370 185.606C370 184.949 369.552 184.416 369 184.416C368.448 184.416 368 184.949 368 185.606C368 186.263 368.448 186.796 369 186.796Z" fill="#DFF4FD" fill-opacity="0.5"/>
<path d="M1 210.591C1.55228 210.591 2 210.059 2 209.401C2 208.744 1.55228 208.212 1 208.212C0.447715 208.212 0 208.744 0 209.401C0 210.059 0.447715 210.591 1 210.591Z" fill="#DFF4FD" fill-opacity="0.5"/>
<path d="M35 210.591C35.5523 210.591 36 210.059 36 209.401C36 208.744 35.5523 208.212 35 208.212C34.4477 208.212 34 208.744 34 209.401C34 210.059 34.4477 210.591 35 210.591Z" fill="#2D8BBB" fill-opacity="0.5"/>
<path d="M67 210.591C67.5523 210.591 68 210.059 68 209.401C68 208.744 67.5523 208.212 67 208.212C66.4477 208.212 66 208.744 66 209.401C66 210.059 66.4477 210.591 67 210.591Z" fill="#DFF4FD" fill-opacity="0.5"/>
<path d="M101 210.591C101.552 210.591 102 210.059 102 209.401C102 208.744 101.552 208.212 101 208.212C100.448 208.212 100 208.744 100 209.401C100 210.059 100.448 210.591 101 210.591Z" fill="#2D8BBB" fill-opacity="0.5"/>
<path d="M134 210.591C134.552 210.591 135 210.059 135 209.401C135 208.744 134.552 208.212 134 208.212C133.448 208.212 133 208.744 133 209.401C133 210.059 133.448 210.591 134 210.591Z" fill="#DFF4FD" fill-opacity="0.5"/>
<path d="M168 210.591C168.552 210.591 169 210.059 169 209.401C169 208.744 168.552 208.212 168 208.212C167.448 208.212 167 208.744 167 209.401C167 210.059 167.448 210.591 168 210.591Z" fill="#2D8BBB" fill-opacity="0.5"/>
<path d="M269 210.591C269.552 210.591 270 210.059 270 209.401C270 208.744 269.552 208.212 269 208.212C268.448 208.212 268 208.744 268 209.401C268 210.059 268.448 210.591 269 210.591Z" fill="#DFF4FD" fill-opacity="0.5"/>
<path d="M336 210.591C336.552 210.591 337 210.059 337 209.401C337 208.744 336.552 208.212 336 208.212C335.448 208.212 335 208.744 335 209.401C335 210.059 335.448 210.591 336 210.591Z" fill="#DFF4FD" fill-opacity="0.5"/>
<path d="M369 210.591C369.552 210.591 370 210.059 370 209.401C370 208.744 369.552 208.212 369 208.212C368.448 208.212 368 208.744 368 209.401C368 210.059 368.448 210.591 369 210.591Z" fill="#2D8BBB" fill-opacity="0.5"/>
<path d="M1 234.387C1.55228 234.387 2 233.854 2 233.197C2 232.54 1.55228 232.007 1 232.007C0.447715 232.007 0 232.54 0 233.197C0 233.854 0.447715 234.387 1 234.387Z" fill="#2D8BBB" fill-opacity="0.5"/>
<path d="M35 234.387C35.5523 234.387 36 233.854 36 233.197C36 232.54 35.5523 232.007 35 232.007C34.4477 232.007 34 232.54 34 233.197C34 233.854 34.4477 234.387 35 234.387Z" fill="#DFF4FD" fill-opacity="0.5"/>
<path d="M67 234.387C67.5523 234.387 68 233.854 68 233.197C68 232.54 67.5523 232.007 67 232.007C66.4477 232.007 66 232.54 66 233.197C66 233.854 66.4477 234.387 67 234.387Z" fill="#2D8BBB" fill-opacity="0.5"/>
<path d="M101 234.387C101.552 234.387 102 233.854 102 233.197C102 232.54 101.552 232.007 101 232.007C100.448 232.007 100 232.54 100 233.197C100 233.854 100.448 234.387 101 234.387Z" fill="#DFF4FD" fill-opacity="0.5"/>
<path d="M134 234.387C134.552 234.387 135 233.854 135 233.197C135 232.54 134.552 232.007 134 232.007C133.448 232.007 133 232.54 133 233.197C133 233.854 133.448 234.387 134 234.387Z" fill="#2D8BBB" fill-opacity="0.5"/>
<path d="M168 234.387C168.552 234.387 169 233.854 169 233.197C169 232.54 168.552 232.007 168 232.007C167.448 232.007 167 232.54 167 233.197C167 233.854 167.448 234.387 168 234.387Z" fill="#DFF4FD" fill-opacity="0.5"/>
<path d="M200 234.387C200.552 234.387 201 233.854 201 233.197C201 232.54 200.552 232.007 200 232.007C199.448 232.007 199 232.54 199 233.197C199 233.854 199.448 234.387 200 234.387Z" fill="#2D8BBB" fill-opacity="0.5"/>
<path d="M235 234.387C235.552 234.387 236 233.854 236 233.197C236 232.54 235.552 232.007 235 232.007C234.448 232.007 234 232.54 234 233.197C234 233.854 234.448 234.387 235 234.387Z" fill="#DFF4FD" fill-opacity="0.5"/>
<path d="M269 234.387C269.552 234.387 270 233.854 270 233.197C270 232.54 269.552 232.007 269 232.007C268.448 232.007 268 232.54 268 233.197C268 233.854 268.448 234.387 269 234.387Z" fill="#2D8BBB" fill-opacity="0.5"/>
<path d="M336 234.387C336.552 234.387 337 233.854 337 233.197C337 232.54 336.552 232.007 336 232.007C335.448 232.007 335 232.54 335 233.197C335 233.854 335.448 234.387 336 234.387Z" fill="#2D8BBB" fill-opacity="0.5"/>
<path d="M369 234.387C369.552 234.387 370 233.854 370 233.197C370 232.54 369.552 232.007 369 232.007C368.448 232.007 368 232.54 368 233.197C368 233.854 368.448 234.387 369 234.387Z" fill="#DFF4FD" fill-opacity="0.5"/>
<path d="M402 234.387C402.552 234.387 403 233.854 403 233.197C403 232.54 402.552 232.007 402 232.007C401.448 232.007 401 232.54 401 233.197C401 233.854 401.448 234.387 402 234.387Z" fill="#2D8BBB" fill-opacity="0.5"/>
<path d="M1 256.993C1.55228 256.993 2 256.46 2 255.803C2 255.146 1.55228 254.613 1 254.613C0.447715 254.613 0 255.146 0 255.803C0 256.46 0.447715 256.993 1 256.993Z" fill="#DFF4FD" fill-opacity="0.5"/>
<path d="M35 256.993C35.5523 256.993 36 256.46 36 255.803C36 255.146 35.5523 254.613 35 254.613C34.4477 254.613 34 255.146 34 255.803C34 256.46 34.4477 256.993 35 256.993Z" fill="#2D8BBB" fill-opacity="0.5"/>
<path d="M67 256.993C67.5523 256.993 68 256.46 68 255.803C68 255.146 67.5523 254.613 67 254.613C66.4477 254.613 66 255.146 66 255.803C66 256.46 66.4477 256.993 67 256.993Z" fill="#DFF4FD" fill-opacity="0.5"/>
<path d="M101 256.993C101.552 256.993 102 256.46 102 255.803C102 255.146 101.552 254.613 101 254.613C100.448 254.613 100 255.146 100 255.803C100 256.46 100.448 256.993 101 256.993Z" fill="#2D8BBB" fill-opacity="0.5"/>
<path d="M134 256.993C134.552 256.993 135 256.46 135 255.803C135 255.146 134.552 254.613 134 254.613C133.448 254.613 133 255.146 133 255.803C133 256.46 133.448 256.993 134 256.993Z" fill="#DFF4FD" fill-opacity="0.5"/>
<path d="M168 256.993C168.552 256.993 169 256.46 169 255.803C169 255.146 168.552 254.613 168 254.613C167.448 254.613 167 255.146 167 255.803C167 256.46 167.448 256.993 168 256.993Z" fill="#2D8BBB" fill-opacity="0.5"/>
<path d="M200 256.993C200.552 256.993 201 256.46 201 255.803C201 255.146 200.552 254.613 200 254.613C199.448 254.613 199 255.146 199 255.803C199 256.46 199.448 256.993 200 256.993Z" fill="#DFF4FD" fill-opacity="0.5"/>
<path d="M235 256.993C235.552 256.993 236 256.46 236 255.803C236 255.146 235.552 254.613 235 254.613C234.448 254.613 234 255.146 234 255.803C234 256.46 234.448 256.993 235 256.993Z" fill="#2D8BBB" fill-opacity="0.5"/>
<path d="M269 256.993C269.552 256.993 270 256.46 270 255.803C270 255.146 269.552 254.613 269 254.613C268.448 254.613 268 255.146 268 255.803C268 256.46 268.448 256.993 269 256.993Z" fill="#DFF4FD" fill-opacity="0.5"/>
<path d="M336 256.993C336.552 256.993 337 256.46 337 255.803C337 255.146 336.552 254.613 336 254.613C335.448 254.613 335 255.146 335 255.803C335 256.46 335.448 256.993 336 256.993Z" fill="#DFF4FD" fill-opacity="0.5"/>
<path d="M369 256.993C369.552 256.993 370 256.46 370 255.803C370 255.146 369.552 254.613 369 254.613C368.448 254.613 368 255.146 368 255.803C368 256.46 368.448 256.993 369 256.993Z" fill="#2D8BBB" fill-opacity="0.5"/>
<path d="M402 256.993C402.552 256.993 403 256.46 403 255.803C403 255.146 402.552 254.613 402 254.613C401.448 254.613 401 255.146 401 255.803C401 256.46 401.448 256.993 402 256.993Z" fill="#DFF4FD" fill-opacity="0.5"/>
<path d="M1 279.599C1.55228 279.599 2 279.066 2 278.409C2 277.752 1.55228 277.219 1 277.219C0.447715 277.219 0 277.752 0 278.409C0 279.066 0.447715 279.599 1 279.599Z" fill="#2D8BBB" fill-opacity="0.5"/>
<path d="M35 279.599C35.5523 279.599 36 279.066 36 278.409C36 277.752 35.5523 277.219 35 277.219C34.4477 277.219 34 277.752 34 278.409C34 279.066 34.4477 279.599 35 279.599Z" fill="#DFF4FD" fill-opacity="0.5"/>
<path d="M67 279.599C67.5523 279.599 68 279.066 68 278.409C68 277.752 67.5523 277.219 67 277.219C66.4477 277.219 66 277.752 66 278.409C66 279.066 66.4477 279.599 67 279.599Z" fill="#2D8BBB" fill-opacity="0.5"/>
<path d="M101 279.599C101.552 279.599 102 279.066 102 278.409C102 277.752 101.552 277.219 101 277.219C100.448 277.219 100 277.752 100 278.409C100 279.066 100.448 279.599 101 279.599Z" fill="#DFF4FD" fill-opacity="0.5"/>
<path d="M134 279.599C134.552 279.599 135 279.066 135 278.409C135 277.752 134.552 277.219 134 277.219C133.448 277.219 133 277.752 133 278.409C133 279.066 133.448 279.599 134 279.599Z" fill="#2D8BBB" fill-opacity="0.5"/>
<path d="M168 279.599C168.552 279.599 169 279.066 169 278.409C169 277.752 168.552 277.219 168 277.219C167.448 277.219 167 277.752 167 278.409C167 279.066 167.448 279.599 168 279.599Z" fill="#DFF4FD" fill-opacity="0.5"/>
<path d="M200 279.599C200.552 279.599 201 279.066 201 278.409C201 277.752 200.552 277.219 200 277.219C199.448 277.219 199 277.752 199 278.409C199 279.066 199.448 279.599 200 279.599Z" fill="#2D8BBB" fill-opacity="0.5"/>
<path d="M235 279.599C235.552 279.599 236 279.066 236 278.409C236 277.752 235.552 277.219 235 277.219C234.448 277.219 234 277.752 234 278.409C234 279.066 234.448 279.599 235 279.599Z" fill="#DFF4FD" fill-opacity="0.5"/>
<path d="M269 279.599C269.552 279.599 270 279.066 270 278.409C270 277.752 269.552 277.219 269 277.219C268.448 277.219 268 277.752 268 278.409C268 279.066 268.448 279.599 269 279.599Z" fill="#2D8BBB" fill-opacity="0.5"/>
<path d="M336 279.599C336.552 279.599 337 279.066 337 278.409C337 277.752 336.552 277.219 336 277.219C335.448 277.219 335 277.752 335 278.409C335 279.066 335.448 279.599 336 279.599Z" fill="#2D8BBB" fill-opacity="0.5"/>
<path d="M369 279.599C369.552 279.599 370 279.066 370 278.409C370 277.752 369.552 277.219 369 277.219C368.448 277.219 368 277.752 368 278.409C368 279.066 368.448 279.599 369 279.599Z" fill="#DFF4FD" fill-opacity="0.5"/>
<path d="M402 279.599C402.552 279.599 403 279.066 403 278.409C403 277.752 402.552 277.219 402 277.219C401.448 277.219 401 277.752 401 278.409C401 279.066 401.448 279.599 402 279.599Z" fill="#2D8BBB" fill-opacity="0.5"/>
<path d="M1 303.394C1.55228 303.394 2 302.862 2 302.204C2 301.547 1.55228 301.015 1 301.015C0.447715 301.015 0 301.547 0 302.204C0 302.862 0.447715 303.394 1 303.394Z" fill="#DFF4FD" fill-opacity="0.5"/>
<path d="M35 303.394C35.5523 303.394 36 302.862 36 302.204C36 301.547 35.5523 301.015 35 301.015C34.4477 301.015 34 301.547 34 302.204C34 302.862 34.4477 303.394 35 303.394Z" fill="#2D8BBB" fill-opacity="0.5"/>
<path d="M67 303.394C67.5523 303.394 68 302.862 68 302.204C68 301.547 67.5523 301.015 67 301.015C66.4477 301.015 66 301.547 66 302.204C66 302.862 66.4477 303.394 67 303.394Z" fill="#DFF4FD" fill-opacity="0.5"/>
<path d="M101 303.394C101.552 303.394 102 302.862 102 302.204C102 301.547 101.552 301.015 101 301.015C100.448 301.015 100 301.547 100 302.204C100 302.862 100.448 303.394 101 303.394Z" fill="#2D8BBB" fill-opacity="0.5"/>
<path d="M134 303.394C134.552 303.394 135 302.862 135 302.204C135 301.547 134.552 301.015 134 301.015C133.448 301.015 133 301.547 133 302.204C133 302.862 133.448 303.394 134 303.394Z" fill="#DFF4FD" fill-opacity="0.5"/>
<path d="M168 303.394C168.552 303.394 169 302.862 169 302.204C169 301.547 168.552 301.015 168 301.015C167.448 301.015 167 301.547 167 302.204C167 302.862 167.448 303.394 168 303.394Z" fill="#2D8BBB" fill-opacity="0.5"/>
<path d="M200 303.394C200.552 303.394 201 302.862 201 302.204C201 301.547 200.552 301.015 200 301.015C199.448 301.015 199 301.547 199 302.204C199 302.862 199.448 303.394 200 303.394Z" fill="#DFF4FD" fill-opacity="0.5"/>
<path d="M235 303.394C235.552 303.394 236 302.862 236 302.204C236 301.547 235.552 301.015 235 301.015C234.448 301.015 234 301.547 234 302.204C234 302.862 234.448 303.394 235 303.394Z" fill="#2D8BBB" fill-opacity="0.5"/>
<path d="M269 303.394C269.552 303.394 270 302.862 270 302.204C270 301.547 269.552 301.015 269 301.015C268.448 301.015 268 301.547 268 302.204C268 302.862 268.448 303.394 269 303.394Z" fill="#DFF4FD" fill-opacity="0.5"/>
<path d="M301 303.394C301.552 303.394 302 302.862 302 302.204C302 301.547 301.552 301.015 301 301.015C300.448 301.015 300 301.547 300 302.204C300 302.862 300.448 303.394 301 303.394Z" fill="#2D8BBB" fill-opacity="0.5"/>
<path d="M336 303.394C336.552 303.394 337 302.862 337 302.204C337 301.547 336.552 301.015 336 301.015C335.448 301.015 335 301.547 335 302.204C335 302.862 335.448 303.394 336 303.394Z" fill="#DFF4FD" fill-opacity="0.5"/>
<path d="M369 303.394C369.552 303.394 370 302.862 370 302.204C370 301.547 369.552 301.015 369 301.015C368.448 301.015 368 301.547 368 302.204C368 302.862 368.448 303.394 369 303.394Z" fill="#2D8BBB" fill-opacity="0.5"/>
<path d="M402 303.394C402.552 303.394 403 302.862 403 302.204C403 301.547 402.552 301.015 402 301.015C401.448 301.015 401 301.547 401 302.204C401 302.862 401.448 303.394 402 303.394Z" fill="#DFF4FD" fill-opacity="0.5"/>
<path d="M435 303.394C435.552 303.394 436 302.862 436 302.204C436 301.547 435.552 301.015 435 301.015C434.448 301.015 434 301.547 434 302.204C434 302.862 434.448 303.394 435 303.394Z" fill="#2D8BBB" fill-opacity="0.5"/>
<path d="M469 303.394C469.552 303.394 470 302.862 470 302.204C470 301.547 469.552 301.015 469 301.015C468.448 301.015 468 301.547 468 302.204C468 302.862 468.448 303.394 469 303.394Z" fill="#DFF4FD" fill-opacity="0.5"/>
<path d="M502 303.394C502.552 303.394 503 302.862 503 302.204C503 301.547 502.552 301.015 502 301.015C501.448 301.015 501 301.547 501 302.204C501 302.862 501.448 303.394 502 303.394Z" fill="#2D8BBB" fill-opacity="0.5"/>
<path d="M535 303.394C535.552 303.394 536 302.862 536 302.204C536 301.547 535.552 301.015 535 301.015C534.448 301.015 534 301.547 534 302.204C534 302.862 534.448 303.394 535 303.394Z" fill="#DFF4FD" fill-opacity="0.5"/>
<path d="M569 303.394C569.552 303.394 570 302.862 570 302.204C570 301.547 569.552 301.015 569 301.015C568.448 301.015 568 301.547 568 302.204C568 302.862 568.448 303.394 569 303.394Z" fill="#2D8BBB" fill-opacity="0.5"/>
<path d="M602 303.394C602.552 303.394 603 302.862 603 302.204C603 301.547 602.552 301.015 602 301.015C601.448 301.015 601 301.547 601 302.204C601 302.862 601.448 303.394 602 303.394Z" fill="#DFF4FD" fill-opacity="0.5"/>
<path d="M1231 2.37956C1231.55 2.37956 1232 1.84688 1232 1.18978C1232 0.532683 1231.55 0 1231 0C1230.45 0 1230 0.532683 1230 1.18978C1230 1.84688 1230.45 2.37956 1231 2.37956Z" fill="#2D8BBB" fill-opacity="0.5"/>
<path d="M1231 26.1752C1231.55 26.1752 1232 25.6425 1232 24.9854C1232 24.3283 1231.55 23.7957 1231 23.7957C1230.45 23.7957 1230 24.3283 1230 24.9854C1230 25.6425 1230.45 26.1752 1231 26.1752Z" fill="#DFF4FD" fill-opacity="0.5"/>
<path d="M1231 48.7811C1231.55 48.7811 1232 48.2484 1232 47.5913C1232 46.9342 1231.55 46.4015 1231 46.4015C1230.45 46.4015 1230 46.9342 1230 47.5913C1230 48.2484 1230.45 48.7811 1231 48.7811Z" fill="#2D8BBB" fill-opacity="0.5"/>
<path d="M1231 71.3869C1231.55 71.3869 1232 70.8542 1232 70.1971C1232 69.54 1231.55 69.0073 1231 69.0073C1230.45 69.0073 1230 69.54 1230 70.1971C1230 70.8542 1230.45 71.3869 1231 71.3869Z" fill="#DFF4FD" fill-opacity="0.5"/>
<path d="M1198 95.1825C1198.55 95.1825 1199 94.6499 1199 93.9928C1199 93.3357 1198.55 92.803 1198 92.803C1197.45 92.803 1197 93.3357 1197 93.9928C1197 94.6499 1197.45 95.1825 1198 95.1825Z" fill="#DFF4FD" fill-opacity="0.5"/>
<path d="M1231 95.1825C1231.55 95.1825 1232 94.6499 1232 93.9928C1232 93.3357 1231.55 92.803 1231 92.803C1230.45 92.803 1230 93.3357 1230 93.9928C1230 94.6499 1230.45 95.1825 1231 95.1825Z" fill="#2D8BBB" fill-opacity="0.5"/>
<path d="M897 118.978C897.552 118.978 898 118.446 898 117.788C898 117.131 897.552 116.599 897 116.599C896.448 116.599 896 117.131 896 117.788C896 118.446 896.448 118.978 897 118.978Z" fill="#DFF4FD" fill-opacity="0.5"/>
<path d="M997 118.978C997.552 118.978 998 118.446 998 117.788C998 117.131 997.552 116.599 997 116.599C996.448 116.599 996 117.131 996 117.788C996 118.446 996.448 118.978 997 118.978Z" fill="#2D8BBB" fill-opacity="0.5"/>
<path d="M1032 118.978C1032.55 118.978 1033 118.446 1033 117.788C1033 117.131 1032.55 116.599 1032 116.599C1031.45 116.599 1031 117.131 1031 117.788C1031 118.446 1031.45 118.978 1032 118.978Z" fill="#DFF4FD" fill-opacity="0.5"/>
<path d="M1131 118.978C1131.55 118.978 1132 118.446 1132 117.788C1132 117.131 1131.55 116.599 1131 116.599C1130.45 116.599 1130 117.131 1130 117.788C1130 118.446 1130.45 118.978 1131 118.978Z" fill="#2D8BBB" fill-opacity="0.5"/>
<path d="M1165 118.978C1165.55 118.978 1166 118.446 1166 117.788C1166 117.131 1165.55 116.599 1165 116.599C1164.45 116.599 1164 117.131 1164 117.788C1164 118.446 1164.45 118.978 1165 118.978Z" fill="#DFF4FD" fill-opacity="0.5"/>
<path d="M1198 118.978C1198.55 118.978 1199 118.446 1199 117.788C1199 117.131 1198.55 116.599 1198 116.599C1197.45 116.599 1197 117.131 1197 117.788C1197 118.446 1197.45 118.978 1198 118.978Z" fill="#2D8BBB" fill-opacity="0.5"/>
<path d="M1231 118.978C1231.55 118.978 1232 118.446 1232 117.788C1232 117.131 1231.55 116.599 1231 116.599C1230.45 116.599 1230 117.131 1230 117.788C1230 118.446 1230.45 118.978 1231 118.978Z" fill="#DFF4FD" fill-opacity="0.5"/>
<path d="M897 141.584C897.552 141.584 898 141.051 898 140.394C898 139.737 897.552 139.204 897 139.204C896.448 139.204 896 139.737 896 140.394C896 141.051 896.448 141.584 897 141.584Z" fill="#2D8BBB" fill-opacity="0.5"/>
<path d="M997 141.584C997.552 141.584 998 141.051 998 140.394C998 139.737 997.552 139.204 997 139.204C996.448 139.204 996 139.737 996 140.394C996 141.051 996.448 141.584 997 141.584Z" fill="#DFF4FD" fill-opacity="0.5"/>
<path d="M1032 141.584C1032.55 141.584 1033 141.051 1033 140.394C1033 139.737 1032.55 139.204 1032 139.204C1031.45 139.204 1031 139.737 1031 140.394C1031 141.051 1031.45 141.584 1032 141.584Z" fill="#2D8BBB" fill-opacity="0.5"/>
<path d="M1131 141.584C1131.55 141.584 1132 141.051 1132 140.394C1132 139.737 1131.55 139.204 1131 139.204C1130.45 139.204 1130 139.737 1130 140.394C1130 141.051 1130.45 141.584 1131 141.584Z" fill="#DFF4FD" fill-opacity="0.5"/>
<path d="M1165 141.584C1165.55 141.584 1166 141.051 1166 140.394C1166 139.737 1165.55 139.204 1165 139.204C1164.45 139.204 1164 139.737 1164 140.394C1164 141.051 1164.45 141.584 1165 141.584Z" fill="#2D8BBB" fill-opacity="0.5"/>
<path d="M1198 141.584C1198.55 141.584 1199 141.051 1199 140.394C1199 139.737 1198.55 139.204 1198 139.204C1197.45 139.204 1197 139.737 1197 140.394C1197 141.051 1197.45 141.584 1198 141.584Z" fill="#DFF4FD" fill-opacity="0.5"/>
<path d="M1231 141.584C1231.55 141.584 1232 141.051 1232 140.394C1232 139.737 1231.55 139.204 1231 139.204C1230.45 139.204 1230 139.737 1230 140.394C1230 141.051 1230.45 141.584 1231 141.584Z" fill="#2D8BBB" fill-opacity="0.5"/>
<path d="M897 164.19C897.552 164.19 898 163.657 898 163C898 162.343 897.552 161.81 897 161.81C896.448 161.81 896 162.343 896 163C896 163.657 896.448 164.19 897 164.19Z" fill="#DFF4FD" fill-opacity="0.5"/>
<path d="M997 164.19C997.552 164.19 998 163.657 998 163C998 162.343 997.552 161.81 997 161.81C996.448 161.81 996 162.343 996 163C996 163.657 996.448 164.19 997 164.19Z" fill="#2D8BBB" fill-opacity="0.5"/>
<path d="M1032 164.19C1032.55 164.19 1033 163.657 1033 163C1033 162.343 1032.55 161.81 1032 161.81C1031.45 161.81 1031 162.343 1031 163C1031 163.657 1031.45 164.19 1032 164.19Z" fill="#DFF4FD" fill-opacity="0.5"/>
<path d="M1131 164.19C1131.55 164.19 1132 163.657 1132 163C1132 162.343 1131.55 161.81 1131 161.81C1130.45 161.81 1130 162.343 1130 163C1130 163.657 1130.45 164.19 1131 164.19Z" fill="#2D8BBB" fill-opacity="0.5"/>
<path d="M1165 164.19C1165.55 164.19 1166 163.657 1166 163C1166 162.343 1165.55 161.81 1165 161.81C1164.45 161.81 1164 162.343 1164 163C1164 163.657 1164.45 164.19 1165 164.19Z" fill="#DFF4FD" fill-opacity="0.5"/>
<path d="M1198 164.19C1198.55 164.19 1199 163.657 1199 163C1199 162.343 1198.55 161.81 1198 161.81C1197.45 161.81 1197 162.343 1197 163C1197 163.657 1197.45 164.19 1198 164.19Z" fill="#2D8BBB" fill-opacity="0.5"/>
<path d="M1231 164.19C1231.55 164.19 1232 163.657 1232 163C1232 162.343 1231.55 161.81 1231 161.81C1230.45 161.81 1230 162.343 1230 163C1230 163.657 1230.45 164.19 1231 164.19Z" fill="#DFF4FD" fill-opacity="0.5"/>
<path d="M897 186.796C897.552 186.796 898 186.263 898 185.606C898 184.949 897.552 184.416 897 184.416C896.448 184.416 896 184.949 896 185.606C896 186.263 896.448 186.796 897 186.796Z" fill="#2D8BBB" fill-opacity="0.5"/>
<path d="M997 186.796C997.552 186.796 998 186.263 998 185.606C998 184.949 997.552 184.416 997 184.416C996.448 184.416 996 184.949 996 185.606C996 186.263 996.448 186.796 997 186.796Z" fill="#DFF4FD" fill-opacity="0.5"/>
<path d="M1032 186.796C1032.55 186.796 1033 186.263 1033 185.606C1033 184.949 1032.55 184.416 1032 184.416C1031.45 184.416 1031 184.949 1031 185.606C1031 186.263 1031.45 186.796 1032 186.796Z" fill="#2D8BBB" fill-opacity="0.5"/>
<path d="M1131 186.796C1131.55 186.796 1132 186.263 1132 185.606C1132 184.949 1131.55 184.416 1131 184.416C1130.45 184.416 1130 184.949 1130 185.606C1130 186.263 1130.45 186.796 1131 186.796Z" fill="#DFF4FD" fill-opacity="0.5"/>
<path d="M1165 186.796C1165.55 186.796 1166 186.263 1166 185.606C1166 184.949 1165.55 184.416 1165 184.416C1164.45 184.416 1164 184.949 1164 185.606C1164 186.263 1164.45 186.796 1165 186.796Z" fill="#2D8BBB" fill-opacity="0.5"/>
<path d="M1198 186.796C1198.55 186.796 1199 186.263 1199 185.606C1199 184.949 1198.55 184.416 1198 184.416C1197.45 184.416 1197 184.949 1197 185.606C1197 186.263 1197.45 186.796 1198 186.796Z" fill="#DFF4FD" fill-opacity="0.5"/>
<path d="M1231 186.796C1231.55 186.796 1232 186.263 1232 185.606C1232 184.949 1231.55 184.416 1231 184.416C1230.45 184.416 1230 184.949 1230 185.606C1230 186.263 1230.45 186.796 1231 186.796Z" fill="#2D8BBB" fill-opacity="0.5"/>
<path d="M797 210.591C797.552 210.591 798 210.059 798 209.401C798 208.744 797.552 208.212 797 208.212C796.448 208.212 796 208.744 796 209.401C796 210.059 796.448 210.591 797 210.591Z" fill="#2D8BBB" fill-opacity="0.5"/>
<path d="M831 210.591C831.552 210.591 832 210.059 832 209.401C832 208.744 831.552 208.212 831 208.212C830.448 208.212 830 208.744 830 209.401C830 210.059 830.448 210.591 831 210.591Z" fill="#DFF4FD" fill-opacity="0.5"/>
<path d="M863 210.591C863.552 210.591 864 210.059 864 209.401C864 208.744 863.552 208.212 863 208.212C862.448 208.212 862 208.744 862 209.401C862 210.059 862.448 210.591 863 210.591Z" fill="#2D8BBB" fill-opacity="0.5"/>
<path d="M897 210.591C897.552 210.591 898 210.059 898 209.401C898 208.744 897.552 208.212 897 208.212C896.448 208.212 896 208.744 896 209.401C896 210.059 896.448 210.591 897 210.591Z" fill="#DFF4FD" fill-opacity="0.5"/>
<path d="M997 210.591C997.552 210.591 998 210.059 998 209.401C998 208.744 997.552 208.212 997 208.212C996.448 208.212 996 208.744 996 209.401C996 210.059 996.448 210.591 997 210.591Z" fill="#2D8BBB" fill-opacity="0.5"/>
<path d="M1032 210.591C1032.55 210.591 1033 210.059 1033 209.401C1033 208.744 1032.55 208.212 1032 208.212C1031.45 208.212 1031 208.744 1031 209.401C1031 210.059 1031.45 210.591 1032 210.591Z" fill="#DFF4FD" fill-opacity="0.5"/>
<path d="M1131 210.591C1131.55 210.591 1132 210.059 1132 209.401C1132 208.744 1131.55 208.212 1131 208.212C1130.45 208.212 1130 208.744 1130 209.401C1130 210.059 1130.45 210.591 1131 210.591Z" fill="#2D8BBB" fill-opacity="0.5"/>
<path d="M1165 210.591C1165.55 210.591 1166 210.059 1166 209.401C1166 208.744 1165.55 208.212 1165 208.212C1164.45 208.212 1164 208.744 1164 209.401C1164 210.059 1164.45 210.591 1165 210.591Z" fill="#DFF4FD" fill-opacity="0.5"/>
<path d="M1198 210.591C1198.55 210.591 1199 210.059 1199 209.401C1199 208.744 1198.55 208.212 1198 208.212C1197.45 208.212 1197 208.744 1197 209.401C1197 210.059 1197.45 210.591 1198 210.591Z" fill="#2D8BBB" fill-opacity="0.5"/>
<path d="M1231 210.591C1231.55 210.591 1232 210.059 1232 209.401C1232 208.744 1231.55 208.212 1231 208.212C1230.45 208.212 1230 208.744 1230 209.401C1230 210.059 1230.45 210.591 1231 210.591Z" fill="#DFF4FD" fill-opacity="0.5"/>
<path d="M797 234.387C797.552 234.387 798 233.854 798 233.197C798 232.54 797.552 232.007 797 232.007C796.448 232.007 796 232.54 796 233.197C796 233.854 796.448 234.387 797 234.387Z" fill="#DFF4FD" fill-opacity="0.5"/>
<path d="M831 234.387C831.552 234.387 832 233.854 832 233.197C832 232.54 831.552 232.007 831 232.007C830.448 232.007 830 232.54 830 233.197C830 233.854 830.448 234.387 831 234.387Z" fill="#2D8BBB" fill-opacity="0.5"/>
<path d="M863 234.387C863.552 234.387 864 233.854 864 233.197C864 232.54 863.552 232.007 863 232.007C862.448 232.007 862 232.54 862 233.197C862 233.854 862.448 234.387 863 234.387Z" fill="#DFF4FD" fill-opacity="0.5"/>
<path d="M897 234.387C897.552 234.387 898 233.854 898 233.197C898 232.54 897.552 232.007 897 232.007C896.448 232.007 896 232.54 896 233.197C896 233.854 896.448 234.387 897 234.387Z" fill="#2D8BBB" fill-opacity="0.5"/>
<path d="M931 234.387C931.552 234.387 932 233.854 932 233.197C932 232.54 931.552 232.007 931 232.007C930.448 232.007 930 232.54 930 233.197C930 233.854 930.448 234.387 931 234.387Z" fill="#DFF4FD" fill-opacity="0.5"/>
<path d="M964 234.387C964.552 234.387 965 233.854 965 233.197C965 232.54 964.552 232.007 964 232.007C963.448 232.007 963 232.54 963 233.197C963 233.854 963.448 234.387 964 234.387Z" fill="#2D8BBB" fill-opacity="0.5"/>
<path d="M997 234.387C997.552 234.387 998 233.854 998 233.197C998 232.54 997.552 232.007 997 232.007C996.448 232.007 996 232.54 996 233.197C996 233.854 996.448 234.387 997 234.387Z" fill="#DFF4FD" fill-opacity="0.5"/>
<path d="M1032 234.387C1032.55 234.387 1033 233.854 1033 233.197C1033 232.54 1032.55 232.007 1032 232.007C1031.45 232.007 1031 232.54 1031 233.197C1031 233.854 1031.45 234.387 1032 234.387Z" fill="#2D8BBB" fill-opacity="0.5"/>
<path d="M1131 234.387C1131.55 234.387 1132 233.854 1132 233.197C1132 232.54 1131.55 232.007 1131 232.007C1130.45 232.007 1130 232.54 1130 233.197C1130 233.854 1130.45 234.387 1131 234.387Z" fill="#DFF4FD" fill-opacity="0.5"/>
<path d="M1165 234.387C1165.55 234.387 1166 233.854 1166 233.197C1166 232.54 1165.55 232.007 1165 232.007C1164.45 232.007 1164 232.54 1164 233.197C1164 233.854 1164.45 234.387 1165 234.387Z" fill="#2D8BBB" fill-opacity="0.5"/>
<path d="M1198 234.387C1198.55 234.387 1199 233.854 1199 233.197C1199 232.54 1198.55 232.007 1198 232.007C1197.45 232.007 1197 232.54 1197 233.197C1197 233.854 1197.45 234.387 1198 234.387Z" fill="#DFF4FD" fill-opacity="0.5"/>
<path d="M1231 234.387C1231.55 234.387 1232 233.854 1232 233.197C1232 232.54 1231.55 232.007 1231 232.007C1230.45 232.007 1230 232.54 1230 233.197C1230 233.854 1230.45 234.387 1231 234.387Z" fill="#2D8BBB" fill-opacity="0.5"/>
<path d="M764 256.993C764.552 256.993 765 256.46 765 255.803C765 255.146 764.552 254.613 764 254.613C763.448 254.613 763 255.146 763 255.803C763 256.46 763.448 256.993 764 256.993Z" fill="#DFF4FD" fill-opacity="0.5"/>
<path d="M797 256.993C797.552 256.993 798 256.46 798 255.803C798 255.146 797.552 254.613 797 254.613C796.448 254.613 796 255.146 796 255.803C796 256.46 796.448 256.993 797 256.993Z" fill="#2D8BBB" fill-opacity="0.5"/>
<path d="M831 256.993C831.552 256.993 832 256.46 832 255.803C832 255.146 831.552 254.613 831 254.613C830.448 254.613 830 255.146 830 255.803C830 256.46 830.448 256.993 831 256.993Z" fill="#DFF4FD" fill-opacity="0.5"/>
<path d="M863 256.993C863.552 256.993 864 256.46 864 255.803C864 255.146 863.552 254.613 863 254.613C862.448 254.613 862 255.146 862 255.803C862 256.46 862.448 256.993 863 256.993Z" fill="#2D8BBB" fill-opacity="0.5"/>
<path d="M897 256.993C897.552 256.993 898 256.46 898 255.803C898 255.146 897.552 254.613 897 254.613C896.448 254.613 896 255.146 896 255.803C896 256.46 896.448 256.993 897 256.993Z" fill="#DFF4FD" fill-opacity="0.5"/>
<path d="M931 256.993C931.552 256.993 932 256.46 932 255.803C932 255.146 931.552 254.613 931 254.613C930.448 254.613 930 255.146 930 255.803C930 256.46 930.448 256.993 931 256.993Z" fill="#2D8BBB" fill-opacity="0.5"/>
<path d="M964 256.993C964.552 256.993 965 256.46 965 255.803C965 255.146 964.552 254.613 964 254.613C963.448 254.613 963 255.146 963 255.803C963 256.46 963.448 256.993 964 256.993Z" fill="#DFF4FD" fill-opacity="0.5"/>
<path d="M997 256.993C997.552 256.993 998 256.46 998 255.803C998 255.146 997.552 254.613 997 254.613C996.448 254.613 996 255.146 996 255.803C996 256.46 996.448 256.993 997 256.993Z" fill="#2D8BBB" fill-opacity="0.5"/>
<path d="M1032 256.993C1032.55 256.993 1033 256.46 1033 255.803C1033 255.146 1032.55 254.613 1032 254.613C1031.45 254.613 1031 255.146 1031 255.803C1031 256.46 1031.45 256.993 1032 256.993Z" fill="#DFF4FD" fill-opacity="0.5"/>
<path d="M1131 256.993C1131.55 256.993 1132 256.46 1132 255.803C1132 255.146 1131.55 254.613 1131 254.613C1130.45 254.613 1130 255.146 1130 255.803C1130 256.46 1130.45 256.993 1131 256.993Z" fill="#2D8BBB" fill-opacity="0.5"/>
<path d="M1165 256.993C1165.55 256.993 1166 256.46 1166 255.803C1166 255.146 1165.55 254.613 1165 254.613C1164.45 254.613 1164 255.146 1164 255.803C1164 256.46 1164.45 256.993 1165 256.993Z" fill="#DFF4FD" fill-opacity="0.5"/>
<path d="M1198 256.993C1198.55 256.993 1199 256.46 1199 255.803C1199 255.146 1198.55 254.613 1198 254.613C1197.45 254.613 1197 255.146 1197 255.803C1197 256.46 1197.45 256.993 1198 256.993Z" fill="#2D8BBB" fill-opacity="0.5"/>
<path d="M1231 256.993C1231.55 256.993 1232 256.46 1232 255.803C1232 255.146 1231.55 254.613 1231 254.613C1230.45 254.613 1230 255.146 1230 255.803C1230 256.46 1230.45 256.993 1231 256.993Z" fill="#DFF4FD" fill-opacity="0.5"/>
<path d="M764 279.599C764.552 279.599 765 279.066 765 278.409C765 277.752 764.552 277.219 764 277.219C763.448 277.219 763 277.752 763 278.409C763 279.066 763.448 279.599 764 279.599Z" fill="#2D8BBB" fill-opacity="0.5"/>
<path d="M797 279.599C797.552 279.599 798 279.066 798 278.409C798 277.752 797.552 277.219 797 277.219C796.448 277.219 796 277.752 796 278.409C796 279.066 796.448 279.599 797 279.599Z" fill="#DFF4FD" fill-opacity="0.5"/>
<path d="M831 279.599C831.552 279.599 832 279.066 832 278.409C832 277.752 831.552 277.219 831 277.219C830.448 277.219 830 277.752 830 278.409C830 279.066 830.448 279.599 831 279.599Z" fill="#2D8BBB" fill-opacity="0.5"/>
<path d="M863 279.599C863.552 279.599 864 279.066 864 278.409C864 277.752 863.552 277.219 863 277.219C862.448 277.219 862 277.752 862 278.409C862 279.066 862.448 279.599 863 279.599Z" fill="#DFF4FD" fill-opacity="0.5"/>
<path d="M897 279.599C897.552 279.599 898 279.066 898 278.409C898 277.752 897.552 277.219 897 277.219C896.448 277.219 896 277.752 896 278.409C896 279.066 896.448 279.599 897 279.599Z" fill="#2D8BBB" fill-opacity="0.5"/>
<path d="M931 279.599C931.552 279.599 932 279.066 932 278.409C932 277.752 931.552 277.219 931 277.219C930.448 277.219 930 277.752 930 278.409C930 279.066 930.448 279.599 931 279.599Z" fill="#DFF4FD" fill-opacity="0.5"/>
<path d="M964 279.599C964.552 279.599 965 279.066 965 278.409C965 277.752 964.552 277.219 964 277.219C963.448 277.219 963 277.752 963 278.409C963 279.066 963.448 279.599 964 279.599Z" fill="#2D8BBB" fill-opacity="0.5"/>
<path d="M997 279.599C997.552 279.599 998 279.066 998 278.409C998 277.752 997.552 277.219 997 277.219C996.448 277.219 996 277.752 996 278.409C996 279.066 996.448 279.599 997 279.599Z" fill="#DFF4FD" fill-opacity="0.5"/>
<path d="M1032 279.599C1032.55 279.599 1033 279.066 1033 278.409C1033 277.752 1032.55 277.219 1032 277.219C1031.45 277.219 1031 277.752 1031 278.409C1031 279.066 1031.45 279.599 1032 279.599Z" fill="#2D8BBB" fill-opacity="0.5"/>
<path d="M1065 279.599C1065.55 279.599 1066 279.066 1066 278.409C1066 277.752 1065.55 277.219 1065 277.219C1064.45 277.219 1064 277.752 1064 278.409C1064 279.066 1064.45 279.599 1065 279.599Z" fill="#DFF4FD" fill-opacity="0.5"/>
<path d="M1098 279.599C1098.55 279.599 1099 279.066 1099 278.409C1099 277.752 1098.55 277.219 1098 277.219C1097.45 277.219 1097 277.752 1097 278.409C1097 279.066 1097.45 279.599 1098 279.599Z" fill="#2D8BBB" fill-opacity="0.5"/>
<path d="M1131 279.599C1131.55 279.599 1132 279.066 1132 278.409C1132 277.752 1131.55 277.219 1131 277.219C1130.45 277.219 1130 277.752 1130 278.409C1130 279.066 1130.45 279.599 1131 279.599Z" fill="#DFF4FD" fill-opacity="0.5"/>
<path d="M1165 279.599C1165.55 279.599 1166 279.066 1166 278.409C1166 277.752 1165.55 277.219 1165 277.219C1164.45 277.219 1164 277.752 1164 278.409C1164 279.066 1164.45 279.599 1165 279.599Z" fill="#2D8BBB" fill-opacity="0.5"/>
<path d="M1198 279.599C1198.55 279.599 1199 279.066 1199 278.409C1199 277.752 1198.55 277.219 1198 277.219C1197.45 277.219 1197 277.752 1197 278.409C1197 279.066 1197.45 279.599 1198 279.599Z" fill="#DFF4FD" fill-opacity="0.5"/>
<path d="M1231 279.599C1231.55 279.599 1232 279.066 1232 278.409C1232 277.752 1231.55 277.219 1231 277.219C1230.45 277.219 1230 277.752 1230 278.409C1230 279.066 1230.45 279.599 1231 279.599Z" fill="#2D8BBB" fill-opacity="0.5"/>
<path d="M631 303.394C631.552 303.394 632 302.862 632 302.204C632 301.547 631.552 301.015 631 301.015C630.448 301.015 630 301.547 630 302.204C630 302.862 630.448 303.394 631 303.394Z" fill="#DFF4FD" fill-opacity="0.5"/>
<path d="M664 303.394C664.552 303.394 665 302.862 665 302.204C665 301.547 664.552 301.015 664 301.015C663.448 301.015 663 301.547 663 302.204C663 302.862 663.448 303.394 664 303.394Z" fill="#2D8BBB" fill-opacity="0.5"/>
<path d="M698 303.394C698.552 303.394 699 302.862 699 302.204C699 301.547 698.552 301.015 698 301.015C697.448 301.015 697 301.547 697 302.204C697 302.862 697.448 303.394 698 303.394Z" fill="#DFF4FD" fill-opacity="0.5"/>
<path d="M731 303.394C731.552 303.394 732 302.862 732 302.204C732 301.547 731.552 301.015 731 301.015C730.448 301.015 730 301.547 730 302.204C730 302.862 730.448 303.394 731 303.394Z" fill="#2D8BBB" fill-opacity="0.5"/>
<path d="M764 303.394C764.552 303.394 765 302.862 765 302.204C765 301.547 764.552 301.015 764 301.015C763.448 301.015 763 301.547 763 302.204C763 302.862 763.448 303.394 764 303.394Z" fill="#DFF4FD" fill-opacity="0.5"/>
<path d="M797 303.394C797.552 303.394 798 302.862 798 302.204C798 301.547 797.552 301.015 797 301.015C796.448 301.015 796 301.547 796 302.204C796 302.862 796.448 303.394 797 303.394Z" fill="#2D8BBB" fill-opacity="0.5"/>
<path d="M831 303.394C831.552 303.394 832 302.862 832 302.204C832 301.547 831.552 301.015 831 301.015C830.448 301.015 830 301.547 830 302.204C830 302.862 830.448 303.394 831 303.394Z" fill="#DFF4FD" fill-opacity="0.5"/>
<path d="M863 303.394C863.552 303.394 864 302.862 864 302.204C864 301.547 863.552 301.015 863 301.015C862.448 301.015 862 301.547 862 302.204C862 302.862 862.448 303.394 863 303.394Z" fill="#2D8BBB" fill-opacity="0.5"/>
<path d="M897 303.394C897.552 303.394 898 302.862 898 302.204C898 301.547 897.552 301.015 897 301.015C896.448 301.015 896 301.547 896 302.204C896 302.862 896.448 303.394 897 303.394Z" fill="#DFF4FD" fill-opacity="0.5"/>
<path d="M931 303.394C931.552 303.394 932 302.862 932 302.204C932 301.547 931.552 301.015 931 301.015C930.448 301.015 930 301.547 930 302.204C930 302.862 930.448 303.394 931 303.394Z" fill="#2D8BBB" fill-opacity="0.5"/>
<path d="M964 303.394C964.552 303.394 965 302.862 965 302.204C965 301.547 964.552 301.015 964 301.015C963.448 301.015 963 301.547 963 302.204C963 302.862 963.448 303.394 964 303.394Z" fill="#DFF4FD" fill-opacity="0.5"/>
<path d="M997 303.394C997.552 303.394 998 302.862 998 302.204C998 301.547 997.552 301.015 997 301.015C996.448 301.015 996 301.547 996 302.204C996 302.862 996.448 303.394 997 303.394Z" fill="#2D8BBB" fill-opacity="0.5"/>
<path d="M1032 303.394C1032.55 303.394 1033 302.862 1033 302.204C1033 301.547 1032.55 301.015 1032 301.015C1031.45 301.015 1031 301.547 1031 302.204C1031 302.862 1031.45 303.394 1032 303.394Z" fill="#DFF4FD" fill-opacity="0.5"/>
<path d="M1065 303.394C1065.55 303.394 1066 302.862 1066 302.204C1066 301.547 1065.55 301.015 1065 301.015C1064.45 301.015 1064 301.547 1064 302.204C1064 302.862 1064.45 303.394 1065 303.394Z" fill="#2D8BBB" fill-opacity="0.5"/>
<path d="M1098 303.394C1098.55 303.394 1099 302.862 1099 302.204C1099 301.547 1098.55 301.015 1098 301.015C1097.45 301.015 1097 301.547 1097 302.204C1097 302.862 1097.45 303.394 1098 303.394Z" fill="#DFF4FD" fill-opacity="0.5"/>
<path d="M1131 303.394C1131.55 303.394 1132 302.862 1132 302.204C1132 301.547 1131.55 301.015 1131 301.015C1130.45 301.015 1130 301.547 1130 302.204C1130 302.862 1130.45 303.394 1131 303.394Z" fill="#2D8BBB" fill-opacity="0.5"/>
<path d="M1165 303.394C1165.55 303.394 1166 302.862 1166 302.204C1166 301.547 1165.55 301.015 1165 301.015C1164.45 301.015 1164 301.547 1164 302.204C1164 302.862 1164.45 303.394 1165 303.394Z" fill="#DFF4FD" fill-opacity="0.5"/>
<path d="M1198 303.394C1198.55 303.394 1199 302.862 1199 302.204C1199 301.547 1198.55 301.015 1198 301.015C1197.45 301.015 1197 301.547 1197 302.204C1197 302.862 1197.45 303.394 1198 303.394Z" fill="#2D8BBB" fill-opacity="0.5"/>
<path d="M1231 303.394C1231.55 303.394 1232 302.862 1232 302.204C1232 301.547 1231.55 301.015 1231 301.015C1230.45 301.015 1230 301.547 1230 302.204C1230 302.862 1230.45 303.394 1231 303.394Z" fill="#DFF4FD" fill-opacity="0.5"/>
</g>
</svg>
