<svg width="20" height="18" viewBox="0 0 20 18" fill="none" xmlns="http://www.w3.org/2000/svg">
<path d="M6.324 10.65C6.508 10.65 6.6625 10.5878 6.7875 10.4635C6.9125 10.339 6.975 10.1848 6.975 10.001C6.975 9.817 6.91283 9.6625 6.7885 9.5375C6.664 9.4125 6.50983 9.35 6.326 9.35C6.142 9.35 5.9875 9.41217 5.8625 9.5365C5.7375 9.661 5.675 9.81517 5.675 9.999C5.675 10.183 5.73717 10.3375 5.8615 10.4625C5.986 10.5875 6.14017 10.65 6.324 10.65ZM9.999 10.65C10.183 10.65 10.3375 10.5878 10.4625 10.4635C10.5875 10.339 10.65 10.1848 10.65 10.001C10.65 9.817 10.5878 9.6625 10.4635 9.5375C10.339 9.4125 10.1848 9.35 10.001 9.35C9.817 9.35 9.6625 9.41217 9.5375 9.5365C9.4125 9.661 9.35 9.81517 9.35 9.999C9.35 10.183 9.41217 10.3375 9.5365 10.4625C9.661 10.5875 9.81517 10.65 9.999 10.65ZM13.674 10.65C13.858 10.65 14.0125 10.5878 14.1375 10.4635C14.2625 10.339 14.325 10.1848 14.325 10.001C14.325 9.817 14.2628 9.6625 14.1385 9.5375C14.014 9.4125 13.8598 9.35 13.676 9.35C13.492 9.35 13.3375 9.41217 13.2125 9.5365C13.0875 9.661 13.025 9.81517 13.025 9.999C13.025 10.183 13.0872 10.3375 13.2115 10.4625C13.336 10.5875 13.4902 10.65 13.674 10.65ZM10.0015 17.7C8.93383 17.7 7.93333 17.5 7 17.1C6.06667 16.7 5.25 16.15 4.55 15.45C3.85 14.75 3.3 13.9338 2.9 13.0015C2.5 12.069 2.3 11.069 2.3 10.0015C2.3 8.93383 2.5 7.93333 2.9 7C3.3 6.06667 3.85 5.25 4.55 4.55C5.25 3.85 6.06617 3.3 6.9985 2.9C7.931 2.5 8.931 2.3 9.9985 2.3C11.0662 2.3 12.0667 2.5 13 2.9C13.9333 3.3 14.75 3.85 15.45 4.55C16.15 5.25 16.7 6.06617 17.1 6.9985C17.5 7.931 17.7 8.931 17.7 9.9985C17.7 11.0662 17.5 12.0667 17.1 13C16.7 13.9333 16.15 14.75 15.45 15.45C14.75 16.15 13.9338 16.7 13.0015 17.1C12.069 17.5 11.069 17.7 10.0015 17.7ZM4 0.75L4.5 1.25L1.25 4.5L0.75 4L4 0.75ZM16 0.75L19.25 4L18.75 4.5L15.5 1.25L16 0.75Z" fill="#2D8BBB"/>
</svg>
