<svg width="16" height="16" viewBox="0 0 16 16" fill="none" xmlns="http://www.w3.org/2000/svg">
<path d="M14.6248 15.7C13.0581 15.7 11.429 15.2875 9.7373 14.4625C8.04564 13.6375 6.45814 12.4833 4.9748 11C3.50814 9.51665 2.3623 7.93332 1.5373 6.24999C0.712305 4.56665 0.299805 2.94165 0.299805 1.37499C0.299805 1.07499 0.399805 0.820821 0.599805 0.612488C0.799805 0.404154 1.0498 0.299988 1.3498 0.299988H3.3498C3.63314 0.299988 3.87897 0.387488 4.0873 0.562488C4.29564 0.737488 4.44147 0.966654 4.5248 1.24999L4.9748 3.29999C5.02481 3.58332 5.01647 3.83332 4.9498 4.04999C4.88314 4.26665 4.76647 4.44165 4.5998 4.57499L2.4748 6.49999C2.90814 7.28332 3.37897 8.00415 3.8873 8.66249C4.39564 9.32082 4.93314 9.94166 5.4998 10.525C6.0998 11.125 6.7498 11.6833 7.4498 12.2C8.1498 12.7167 8.9248 13.2083 9.77481 13.675L11.8498 11.55C12.0165 11.3667 12.1956 11.25 12.3873 11.2C12.579 11.15 12.7998 11.1417 13.0498 11.175L14.7498 11.525C15.0331 11.5917 15.2623 11.7333 15.4373 11.95C15.6123 12.1667 15.6998 12.4167 15.6998 12.7V14.65C15.6998 14.95 15.5956 15.2 15.3873 15.4C15.179 15.6 14.9248 15.7 14.6248 15.7Z" fill="#2D8BBB"/>
</svg>
