<svg width="24" height="24" viewBox="0 0 24 24" fill="none" xmlns="http://www.w3.org/2000/svg">
<mask id="mask0_624_1572" style="mask-type:alpha" maskUnits="userSpaceOnUse" x="0" y="0" width="24" height="24">
<rect width="24" height="24" fill="#D9D9D9"/>
</mask>
<g mask="url(#mask0_624_1572)">
<path d="M12.0043 11.65C12.418 11.65 12.7706 11.5027 13.0623 11.208C13.354 10.9135 13.4998 10.5593 13.4998 10.1455C13.4998 9.73182 13.3525 9.37915 13.0578 9.08749C12.7633 8.79582 12.4091 8.64999 11.9953 8.64999C11.5816 8.64999 11.229 8.79732 10.9373 9.09199C10.6456 9.38649 10.4998 9.74065 10.4998 10.1545C10.4998 10.5682 10.6471 10.9208 10.9418 11.2125C11.2363 11.5042 11.5905 11.65 12.0043 11.65ZM11.9998 20.725C9.7498 18.7083 8.0498 16.825 6.8998 15.075C5.7498 13.325 5.1748 11.7417 5.1748 10.325C5.1748 8.32499 5.82897 6.65415 7.1373 5.31249C8.44564 3.97082 10.0665 3.29999 11.9998 3.29999C13.9331 3.29999 15.554 3.97082 16.8623 5.31249C18.1706 6.65415 18.8248 8.32499 18.8248 10.325C18.8248 11.7417 18.2498 13.325 17.0998 15.075C15.9498 16.825 14.2498 18.7083 11.9998 20.725Z" fill="#2D8BBB"/>
</g>
</svg>
