<svg width="18" height="14" viewBox="0 0 18 14" fill="none" xmlns="http://www.w3.org/2000/svg">
<path d="M1.7998 13.7C1.36647 13.7 1.00814 13.5583 0.724805 13.275C0.441471 12.9917 0.299805 12.6333 0.299805 12.2V1.79999C0.299805 1.36665 0.441471 1.00832 0.724805 0.724988C1.00814 0.441654 1.36647 0.299988 1.7998 0.299988H16.1998C16.6331 0.299988 16.9915 0.441654 17.2748 0.724988C17.5581 1.00832 17.6998 1.36665 17.6998 1.79999V12.2C17.6998 12.6333 17.5581 12.9917 17.2748 13.275C16.9915 13.5583 16.6331 13.7 16.1998 13.7H1.7998ZM8.9998 6.84999L16.9998 1.54999L16.5998 0.999988L8.9998 5.99999L1.3998 0.999988L0.999805 1.54999L8.9998 6.84999Z" fill="#2D8BBB"/>
</svg>
